<mxfile host="app.diagrams.net" agent="Mozilla/5.0 (Macintosh; Intel Mac OS X 10_15_7) AppleWebKit/537.36 (KHTML, like Gecko) Chrome/135.0.0.0 Safari/537.36" version="26.3.0">
  <diagram name="Page-1" id="5V5YtJxie7tnlJpk_O-b">
    <mxGraphModel dx="599" dy="405" grid="1" gridSize="10" guides="1" tooltips="1" connect="1" arrows="1" fold="1" page="1" pageScale="1" pageWidth="850" pageHeight="1100" math="0" shadow="0">
      <root>
        <mxCell id="0" />
        <mxCell id="1" parent="0" />
        <mxCell id="dHRViFNPcDj-gL-n66T--1" value="SAMW25 SoC" style="swimlane;whiteSpace=wrap;html=1;dashed=1;fillColor=#f5f5f5;strokeColor=#666666;fontSize=6;" vertex="1" parent="1">
          <mxGeometry x="346" y="205.57" width="190" height="197.62" as="geometry">
            <mxRectangle x="350" y="230" width="140" height="30" as="alternateBounds" />
          </mxGeometry>
        </mxCell>
        <mxCell id="dHRViFNPcDj-gL-n66T--2" value="WiFi Chip(WINC 1550)" style="rounded=0;whiteSpace=wrap;html=1;fontSize=6;" vertex="1" parent="dHRViFNPcDj-gL-n66T--1">
          <mxGeometry x="31" y="32" width="122.5" height="25" as="geometry" />
        </mxCell>
        <mxCell id="dHRViFNPcDj-gL-n66T--3" value="&lt;font style=&quot;font-size: 7px;&quot;&gt;&lt;b&gt;Microcontroller(SAMD21)&lt;/b&gt;&lt;/font&gt;" style="whiteSpace=wrap;html=1;fontSize=6;" vertex="1" parent="dHRViFNPcDj-gL-n66T--1">
          <mxGeometry x="47.5" y="77.62" width="95" height="100" as="geometry" />
        </mxCell>
        <mxCell id="dHRViFNPcDj-gL-n66T--4" value="SPI x1" style="text;html=1;align=center;verticalAlign=middle;whiteSpace=wrap;rounded=0;fontSize=6;" vertex="1" parent="dHRViFNPcDj-gL-n66T--1">
          <mxGeometry x="47.5" y="54.620000000000005" width="60" height="20" as="geometry" />
        </mxCell>
        <mxCell id="dHRViFNPcDj-gL-n66T--5" value="" style="ellipse;whiteSpace=wrap;html=1;aspect=fixed;fillColor=#008a00;strokeColor=#005700;fontSize=6;" vertex="1" parent="dHRViFNPcDj-gL-n66T--1">
          <mxGeometry x="148" y="26.62" width="13" height="13" as="geometry" />
        </mxCell>
        <mxCell id="dHRViFNPcDj-gL-n66T--6" value="GPIO x1" style="text;html=1;align=center;verticalAlign=middle;whiteSpace=wrap;rounded=0;fontSize=6;" vertex="1" parent="dHRViFNPcDj-gL-n66T--1">
          <mxGeometry x="-0.5" y="131" width="60" height="30" as="geometry" />
        </mxCell>
        <mxCell id="dHRViFNPcDj-gL-n66T--7" value="GPIO x1" style="text;html=1;align=center;verticalAlign=middle;whiteSpace=wrap;rounded=0;fontSize=6;" vertex="1" parent="dHRViFNPcDj-gL-n66T--1">
          <mxGeometry x="-0.5" y="78.62" width="60" height="30" as="geometry" />
        </mxCell>
        <mxCell id="dHRViFNPcDj-gL-n66T--8" value="GPIO x1" style="text;html=1;align=center;verticalAlign=middle;whiteSpace=wrap;rounded=0;fontSize=6;" vertex="1" parent="dHRViFNPcDj-gL-n66T--1">
          <mxGeometry x="-0.5" y="102.62" width="60" height="30" as="geometry" />
        </mxCell>
        <mxCell id="dHRViFNPcDj-gL-n66T--9" value="" style="edgeStyle=orthogonalEdgeStyle;rounded=0;orthogonalLoop=1;jettySize=auto;html=1;exitX=1.006;exitY=0.14;exitDx=0;exitDy=0;entryX=0;entryY=0.5;entryDx=0;entryDy=0;exitPerimeter=0;fontSize=6;" edge="1" parent="dHRViFNPcDj-gL-n66T--1">
          <mxGeometry relative="1" as="geometry">
            <mxPoint x="256.92999999999995" y="-112.38" as="targetPoint" />
            <mxPoint x="142.5" y="80.61999999999995" as="sourcePoint" />
            <Array as="points">
              <mxPoint x="142.42999999999995" y="91.62" />
              <mxPoint x="199.42999999999995" y="91.62" />
              <mxPoint x="199.42999999999995" y="-112.38" />
            </Array>
          </mxGeometry>
        </mxCell>
        <mxCell id="dHRViFNPcDj-gL-n66T--10" value="" style="ellipse;whiteSpace=wrap;html=1;aspect=fixed;fillColor=#008a00;strokeColor=#005700;fontSize=6;" vertex="1" parent="dHRViFNPcDj-gL-n66T--1">
          <mxGeometry x="135" y="71.62" width="13" height="13" as="geometry" />
        </mxCell>
        <mxCell id="dHRViFNPcDj-gL-n66T--11" style="edgeStyle=orthogonalEdgeStyle;rounded=0;orthogonalLoop=1;jettySize=auto;html=1;entryX=0.475;entryY=0;entryDx=0;entryDy=0;entryPerimeter=0;fontFamily=Helvetica;fontSize=12;fontColor=default;" edge="1" parent="dHRViFNPcDj-gL-n66T--1" source="dHRViFNPcDj-gL-n66T--2" target="dHRViFNPcDj-gL-n66T--3">
          <mxGeometry relative="1" as="geometry" />
        </mxCell>
        <mxCell id="dHRViFNPcDj-gL-n66T--12" value="Sensors" style="swimlane;whiteSpace=wrap;html=1;dashed=1;fillColor=#f5f5f5;strokeColor=#666666;fontSize=6;" vertex="1" parent="1">
          <mxGeometry x="568" y="57.19" width="157" height="122.81" as="geometry">
            <mxRectangle x="350" y="230" width="140" height="30" as="alternateBounds" />
          </mxGeometry>
        </mxCell>
        <mxCell id="dHRViFNPcDj-gL-n66T--13" value="&amp;nbsp;Humidity &amp;amp; Temperature Sensors" style="whiteSpace=wrap;html=1;fontSize=6;" vertex="1" parent="dHRViFNPcDj-gL-n66T--12">
          <mxGeometry x="35.5" y="33" width="89" height="28" as="geometry" />
        </mxCell>
        <mxCell id="dHRViFNPcDj-gL-n66T--14" value="Air Quality Sensor" style="rounded=0;whiteSpace=wrap;html=1;align=center;fontSize=6;" vertex="1" parent="dHRViFNPcDj-gL-n66T--12">
          <mxGeometry x="37.75" y="67.62" width="84.5" height="18" as="geometry" />
        </mxCell>
        <mxCell id="dHRViFNPcDj-gL-n66T--15" value="" style="ellipse;whiteSpace=wrap;html=1;aspect=fixed;fillColor=#008a00;strokeColor=#005700;fontSize=6;" vertex="1" parent="dHRViFNPcDj-gL-n66T--12">
          <mxGeometry x="117.5" y="28" width="11" height="11" as="geometry" />
        </mxCell>
        <mxCell id="dHRViFNPcDj-gL-n66T--16" value="" style="ellipse;whiteSpace=wrap;html=1;aspect=fixed;fillColor=#008a00;strokeColor=#005700;fontSize=6;" vertex="1" parent="dHRViFNPcDj-gL-n66T--12">
          <mxGeometry x="115.5" y="63.5" width="11" height="11" as="geometry" />
        </mxCell>
        <mxCell id="dHRViFNPcDj-gL-n66T--17" value="" style="edgeStyle=orthogonalEdgeStyle;rounded=0;orthogonalLoop=1;jettySize=auto;html=1;exitX=0.5;exitY=1;exitDx=0;exitDy=0;fontSize=6;" edge="1" parent="dHRViFNPcDj-gL-n66T--12" source="dHRViFNPcDj-gL-n66T--13" target="dHRViFNPcDj-gL-n66T--13">
          <mxGeometry relative="1" as="geometry" />
        </mxCell>
        <mxCell id="dHRViFNPcDj-gL-n66T--18" value="" style="edgeStyle=orthogonalEdgeStyle;rounded=0;orthogonalLoop=1;jettySize=auto;html=1;exitX=0.5;exitY=1;exitDx=0;exitDy=0;fontSize=6;" edge="1" parent="dHRViFNPcDj-gL-n66T--12" source="dHRViFNPcDj-gL-n66T--13" target="dHRViFNPcDj-gL-n66T--13">
          <mxGeometry relative="1" as="geometry" />
        </mxCell>
        <mxCell id="dHRViFNPcDj-gL-n66T--19" value="I2C x 2" style="text;html=1;align=center;verticalAlign=middle;whiteSpace=wrap;rounded=0;fontSize=6;" vertex="1" parent="dHRViFNPcDj-gL-n66T--12">
          <mxGeometry x="-16" y="36" width="60" height="22" as="geometry" />
        </mxCell>
        <mxCell id="dHRViFNPcDj-gL-n66T--20" value="I2C x 1" style="text;html=1;align=center;verticalAlign=middle;whiteSpace=wrap;rounded=0;fontSize=6;" vertex="1" parent="dHRViFNPcDj-gL-n66T--12">
          <mxGeometry x="-16" y="77" width="60" height="14.5" as="geometry" />
        </mxCell>
        <mxCell id="dHRViFNPcDj-gL-n66T--76" value="Switch Reed" style="rounded=0;whiteSpace=wrap;html=1;align=center;fontSize=6;" vertex="1" parent="dHRViFNPcDj-gL-n66T--12">
          <mxGeometry x="37.75" y="91.5" width="84.5" height="18" as="geometry" />
        </mxCell>
        <mxCell id="dHRViFNPcDj-gL-n66T--77" value="" style="endArrow=classic;html=1;rounded=0;" edge="1" parent="dHRViFNPcDj-gL-n66T--12">
          <mxGeometry width="50" height="50" relative="1" as="geometry">
            <mxPoint x="-23.25" y="100.21000000000001" as="sourcePoint" />
            <mxPoint x="37.75" y="100.21000000000001" as="targetPoint" />
          </mxGeometry>
        </mxCell>
        <mxCell id="dHRViFNPcDj-gL-n66T--21" value="Power" style="swimlane;whiteSpace=wrap;html=1;fillColor=#f5f5f5;strokeColor=#666666;dashed=1;fontSize=6;" vertex="1" parent="1">
          <mxGeometry x="348" y="50" width="186" height="124" as="geometry" />
        </mxCell>
        <mxCell id="dHRViFNPcDj-gL-n66T--22" value="" style="edgeStyle=orthogonalEdgeStyle;rounded=0;orthogonalLoop=1;jettySize=auto;html=1;exitX=1;exitY=0.5;exitDx=0;exitDy=0;entryX=0;entryY=0.5;entryDx=0;entryDy=0;fontSize=6;" edge="1" parent="dHRViFNPcDj-gL-n66T--21" source="dHRViFNPcDj-gL-n66T--23" target="dHRViFNPcDj-gL-n66T--25">
          <mxGeometry relative="1" as="geometry" />
        </mxCell>
        <mxCell id="dHRViFNPcDj-gL-n66T--23" value="LiPo Batter&#xa;1 Cell (3.7V to 4.2V)" style="rounded=0;whiteSpace=wrap;html=1;fontSize=6;" vertex="1" parent="dHRViFNPcDj-gL-n66T--21">
          <mxGeometry x="10" y="41" width="59" height="26" as="geometry" />
        </mxCell>
        <mxCell id="dHRViFNPcDj-gL-n66T--24" value="" style="edgeStyle=orthogonalEdgeStyle;rounded=0;orthogonalLoop=1;jettySize=auto;html=1;exitX=0.5;exitY=1;exitDx=0;exitDy=0;entryX=0.5;entryY=0;entryDx=0;entryDy=0;fontSize=6;" edge="1" parent="dHRViFNPcDj-gL-n66T--21" source="dHRViFNPcDj-gL-n66T--25" target="dHRViFNPcDj-gL-n66T--26">
          <mxGeometry relative="1" as="geometry" />
        </mxCell>
        <mxCell id="dHRViFNPcDj-gL-n66T--25" value="Boost Circuit&lt;br&gt;5V / 6V" style="rounded=0;whiteSpace=wrap;html=1;fontSize=6;" vertex="1" parent="dHRViFNPcDj-gL-n66T--21">
          <mxGeometry x="104" y="41.5" width="61" height="26" as="geometry" />
        </mxCell>
        <mxCell id="dHRViFNPcDj-gL-n66T--26" value="Buck Converter&#xa;3.3V" style="rounded=0;whiteSpace=wrap;html=1;fontSize=6;" vertex="1" parent="dHRViFNPcDj-gL-n66T--21">
          <mxGeometry x="108.5" y="86" width="52" height="23.5" as="geometry" />
        </mxCell>
        <mxCell id="dHRViFNPcDj-gL-n66T--27" value="" style="ellipse;whiteSpace=wrap;html=1;aspect=fixed;fillColor=#e3c800;strokeColor=#B09500;fontSize=6;" vertex="1" parent="dHRViFNPcDj-gL-n66T--21">
          <mxGeometry x="62" y="34" width="12" height="12" as="geometry" />
        </mxCell>
        <mxCell id="dHRViFNPcDj-gL-n66T--28" value="" style="ellipse;whiteSpace=wrap;html=1;aspect=fixed;fillColor=#e51400;strokeColor=#B20000;fontSize=6;" vertex="1" parent="dHRViFNPcDj-gL-n66T--21">
          <mxGeometry x="157" y="34" width="13" height="13" as="geometry" />
        </mxCell>
        <mxCell id="dHRViFNPcDj-gL-n66T--29" value="" style="ellipse;whiteSpace=wrap;html=1;aspect=fixed;fillColor=#008a00;strokeColor=#005700;fontSize=6;" vertex="1" parent="dHRViFNPcDj-gL-n66T--21">
          <mxGeometry x="154" y="79" width="13" height="13" as="geometry" />
        </mxCell>
        <mxCell id="dHRViFNPcDj-gL-n66T--30" value="Physical User Interface" style="swimlane;whiteSpace=wrap;html=1;fillColor=#f5f5f5;strokeColor=#666666;dashed=1;fontSize=6;" vertex="1" parent="1">
          <mxGeometry x="131" y="236.19" width="170" height="160" as="geometry" />
        </mxCell>
        <mxCell id="dHRViFNPcDj-gL-n66T--31" value="On/Off Button" style="rounded=0;whiteSpace=wrap;html=1;fontSize=6;" vertex="1" parent="dHRViFNPcDj-gL-n66T--30">
          <mxGeometry x="36" y="39" width="102" height="33" as="geometry" />
        </mxCell>
        <mxCell id="dHRViFNPcDj-gL-n66T--32" value="Wi-Fi Provisioning Button" style="rounded=0;whiteSpace=wrap;html=1;fontSize=6;" vertex="1" parent="dHRViFNPcDj-gL-n66T--30">
          <mxGeometry x="37.25" y="81.88" width="99.5" height="33" as="geometry" />
        </mxCell>
        <mxCell id="dHRViFNPcDj-gL-n66T--33" value="On/Off LED" style="rounded=0;whiteSpace=wrap;html=1;fontSize=6;" vertex="1" parent="dHRViFNPcDj-gL-n66T--30">
          <mxGeometry x="40" y="126" width="94" height="21" as="geometry" />
        </mxCell>
        <mxCell id="dHRViFNPcDj-gL-n66T--34" value="" style="ellipse;whiteSpace=wrap;html=1;aspect=fixed;fillColor=#008a00;strokeColor=#005700;fontSize=6;" vertex="1" parent="dHRViFNPcDj-gL-n66T--30">
          <mxGeometry x="132" y="31" width="13" height="13" as="geometry" />
        </mxCell>
        <mxCell id="dHRViFNPcDj-gL-n66T--35" value="" style="ellipse;whiteSpace=wrap;html=1;aspect=fixed;fillColor=#008a00;strokeColor=#005700;fontSize=6;" vertex="1" parent="dHRViFNPcDj-gL-n66T--30">
          <mxGeometry x="131" y="75.5" width="13" height="13" as="geometry" />
        </mxCell>
        <mxCell id="dHRViFNPcDj-gL-n66T--36" value="" style="ellipse;whiteSpace=wrap;html=1;aspect=fixed;fillColor=#008a00;strokeColor=#005700;fontSize=6;" vertex="1" parent="dHRViFNPcDj-gL-n66T--30">
          <mxGeometry x="126" y="119" width="13" height="13" as="geometry" />
        </mxCell>
        <mxCell id="dHRViFNPcDj-gL-n66T--37" value="" style="edgeStyle=orthogonalEdgeStyle;rounded=0;orthogonalLoop=1;jettySize=auto;html=1;exitX=1;exitY=0.5;exitDx=0;exitDy=0;entryX=0;entryY=0.25;entryDx=0;entryDy=0;fontSize=6;" edge="1" parent="1" source="dHRViFNPcDj-gL-n66T--31" target="dHRViFNPcDj-gL-n66T--3">
          <mxGeometry relative="1" as="geometry" />
        </mxCell>
        <mxCell id="dHRViFNPcDj-gL-n66T--38" value="Actuators" style="swimlane;whiteSpace=wrap;html=1;dashed=1;fillColor=#f5f5f5;strokeColor=#666666;fontSize=6;" vertex="1" parent="1">
          <mxGeometry x="571" y="199.19" width="162" height="207" as="geometry">
            <mxRectangle x="350" y="230" width="140" height="30" as="alternateBounds" />
          </mxGeometry>
        </mxCell>
        <mxCell id="dHRViFNPcDj-gL-n66T--39" value="Motor Servo" style="whiteSpace=wrap;html=1;fontSize=6;" vertex="1" parent="dHRViFNPcDj-gL-n66T--38">
          <mxGeometry x="40" y="32.5" width="89" height="24.5" as="geometry" />
        </mxCell>
        <mxCell id="dHRViFNPcDj-gL-n66T--40" value="" style="ellipse;whiteSpace=wrap;html=1;aspect=fixed;fillColor=#e51400;strokeColor=#B20000;fontSize=6;" vertex="1" parent="dHRViFNPcDj-gL-n66T--38">
          <mxGeometry x="134" y="26.63" width="11" height="11" as="geometry" />
        </mxCell>
        <mxCell id="dHRViFNPcDj-gL-n66T--41" value="" style="edgeStyle=orthogonalEdgeStyle;rounded=0;orthogonalLoop=1;jettySize=auto;html=1;exitX=0.5;exitY=1;exitDx=0;exitDy=0;fontSize=6;" edge="1" parent="dHRViFNPcDj-gL-n66T--38" source="dHRViFNPcDj-gL-n66T--39" target="dHRViFNPcDj-gL-n66T--39">
          <mxGeometry relative="1" as="geometry" />
        </mxCell>
        <mxCell id="dHRViFNPcDj-gL-n66T--42" value="" style="edgeStyle=orthogonalEdgeStyle;rounded=0;orthogonalLoop=1;jettySize=auto;html=1;exitX=0.5;exitY=1;exitDx=0;exitDy=0;fontSize=6;" edge="1" parent="dHRViFNPcDj-gL-n66T--38" source="dHRViFNPcDj-gL-n66T--39" target="dHRViFNPcDj-gL-n66T--39">
          <mxGeometry relative="1" as="geometry" />
        </mxCell>
        <mxCell id="dHRViFNPcDj-gL-n66T--43" value="PDLC" style="rounded=0;whiteSpace=wrap;html=1;fontSize=6;" vertex="1" parent="dHRViFNPcDj-gL-n66T--38">
          <mxGeometry x="44.5" y="70" width="80" height="20" as="geometry" />
        </mxCell>
        <mxCell id="dHRViFNPcDj-gL-n66T--44" value="" style="ellipse;whiteSpace=wrap;html=1;aspect=fixed;fillColor=#008a00;strokeColor=#005700;fontSize=6;" vertex="1" parent="dHRViFNPcDj-gL-n66T--38">
          <mxGeometry x="118" y="65" width="11" height="11" as="geometry" />
        </mxCell>
        <mxCell id="dHRViFNPcDj-gL-n66T--45" value="" style="ellipse;whiteSpace=wrap;html=1;aspect=fixed;fillColor=#008a00;strokeColor=#005700;fontSize=6;" vertex="1" parent="dHRViFNPcDj-gL-n66T--38">
          <mxGeometry x="123" y="26.63" width="11" height="11" as="geometry" />
        </mxCell>
        <mxCell id="dHRViFNPcDj-gL-n66T--46" value="SPI x1" style="text;html=1;align=center;verticalAlign=middle;whiteSpace=wrap;rounded=0;fontSize=6;" vertex="1" parent="dHRViFNPcDj-gL-n66T--38">
          <mxGeometry x="-15.5" y="60" width="60" height="30" as="geometry" />
        </mxCell>
        <mxCell id="dHRViFNPcDj-gL-n66T--47" value="RTC" style="rounded=0;whiteSpace=wrap;html=1;fontSize=6;" vertex="1" parent="dHRViFNPcDj-gL-n66T--38">
          <mxGeometry x="56" y="102" width="57" height="20" as="geometry" />
        </mxCell>
        <mxCell id="dHRViFNPcDj-gL-n66T--48" value="Relay" style="rounded=0;whiteSpace=wrap;html=1;fontSize=6;" vertex="1" parent="dHRViFNPcDj-gL-n66T--38">
          <mxGeometry x="43" y="135" width="80" height="20" as="geometry" />
        </mxCell>
        <mxCell id="dHRViFNPcDj-gL-n66T--50" value="PWM x1" style="text;html=1;align=center;verticalAlign=middle;whiteSpace=wrap;rounded=0;fontSize=6;" vertex="1" parent="dHRViFNPcDj-gL-n66T--38">
          <mxGeometry x="-9.5" y="24" width="48" height="30" as="geometry" />
        </mxCell>
        <mxCell id="dHRViFNPcDj-gL-n66T--51" value="GPIO(dir) x1" style="text;html=1;align=center;verticalAlign=middle;whiteSpace=wrap;rounded=0;fontSize=6;" vertex="1" parent="dHRViFNPcDj-gL-n66T--38">
          <mxGeometry x="-17.5" y="42.75" width="60" height="12.25" as="geometry" />
        </mxCell>
        <mxCell id="dHRViFNPcDj-gL-n66T--52" value="" style="ellipse;whiteSpace=wrap;html=1;aspect=fixed;fillColor=#008a00;strokeColor=#005700;fontSize=6;" vertex="1" parent="dHRViFNPcDj-gL-n66T--38">
          <mxGeometry x="107" y="97" width="11" height="11" as="geometry" />
        </mxCell>
        <mxCell id="dHRViFNPcDj-gL-n66T--53" value="" style="ellipse;whiteSpace=wrap;html=1;aspect=fixed;fillColor=#008a00;strokeColor=#005700;fontSize=6;" vertex="1" parent="dHRViFNPcDj-gL-n66T--38">
          <mxGeometry x="118" y="130" width="11" height="11" as="geometry" />
        </mxCell>
        <mxCell id="dHRViFNPcDj-gL-n66T--54" value="" style="ellipse;whiteSpace=wrap;html=1;aspect=fixed;fillColor=#008a00;strokeColor=#005700;fontSize=6;" vertex="1" parent="dHRViFNPcDj-gL-n66T--38">
          <mxGeometry x="122" y="165" width="11" height="11" as="geometry" />
        </mxCell>
        <mxCell id="dHRViFNPcDj-gL-n66T--55" value="I2C x1" style="text;html=1;align=center;verticalAlign=middle;whiteSpace=wrap;rounded=0;fontSize=6;" vertex="1" parent="dHRViFNPcDj-gL-n66T--38">
          <mxGeometry x="-13.5" y="88.5" width="60" height="30" as="geometry" />
        </mxCell>
        <mxCell id="dHRViFNPcDj-gL-n66T--56" value="GPIO x1" style="text;html=1;align=center;verticalAlign=middle;whiteSpace=wrap;rounded=0;fontSize=6;" vertex="1" parent="dHRViFNPcDj-gL-n66T--38">
          <mxGeometry x="-13.5" y="125" width="60" height="30" as="geometry" />
        </mxCell>
        <mxCell id="dHRViFNPcDj-gL-n66T--57" value="GPIO x32" style="text;html=1;align=center;verticalAlign=middle;whiteSpace=wrap;rounded=0;fontSize=6;" vertex="1" parent="dHRViFNPcDj-gL-n66T--38">
          <mxGeometry x="-13.5" y="157" width="60" height="30" as="geometry" />
        </mxCell>
        <mxCell id="dHRViFNPcDj-gL-n66T--58" style="edgeStyle=orthogonalEdgeStyle;rounded=0;orthogonalLoop=1;jettySize=auto;html=1;exitX=1;exitY=0.25;exitDx=0;exitDy=0;fontFamily=Helvetica;fontSize=12;fontColor=default;" edge="1" parent="1" source="dHRViFNPcDj-gL-n66T--3" target="dHRViFNPcDj-gL-n66T--39">
          <mxGeometry relative="1" as="geometry">
            <Array as="points">
              <mxPoint x="489" y="328.19" />
              <mxPoint x="559" y="328.19" />
              <mxPoint x="559" y="244.19" />
            </Array>
          </mxGeometry>
        </mxCell>
        <mxCell id="dHRViFNPcDj-gL-n66T--59" style="edgeStyle=orthogonalEdgeStyle;rounded=0;orthogonalLoop=1;jettySize=auto;html=1;exitX=1;exitY=0.5;exitDx=0;exitDy=0;fontFamily=Helvetica;fontSize=12;fontColor=default;" edge="1" parent="1" source="dHRViFNPcDj-gL-n66T--3" target="dHRViFNPcDj-gL-n66T--43">
          <mxGeometry relative="1" as="geometry">
            <Array as="points">
              <mxPoint x="489" y="327.19" />
              <mxPoint x="559" y="327.19" />
              <mxPoint x="559" y="279.19" />
            </Array>
          </mxGeometry>
        </mxCell>
        <mxCell id="dHRViFNPcDj-gL-n66T--60" style="edgeStyle=orthogonalEdgeStyle;rounded=0;orthogonalLoop=1;jettySize=auto;html=1;exitX=1;exitY=0.5;exitDx=0;exitDy=0;entryX=0;entryY=0.5;entryDx=0;entryDy=0;fontFamily=Helvetica;fontSize=12;fontColor=default;" edge="1" parent="1" source="dHRViFNPcDj-gL-n66T--3" target="dHRViFNPcDj-gL-n66T--47">
          <mxGeometry relative="1" as="geometry">
            <Array as="points">
              <mxPoint x="489" y="340" />
              <mxPoint x="559" y="340" />
              <mxPoint x="559" y="311" />
            </Array>
          </mxGeometry>
        </mxCell>
        <mxCell id="dHRViFNPcDj-gL-n66T--63" value="" style="shape=image;verticalLabelPosition=bottom;labelBackgroundColor=default;verticalAlign=top;aspect=fixed;imageAspect=0;editableCssRules=.*;image=data:image/svg+xml,PHN2ZyB4bWxuczp4bGluaz0iaHR0cDovL3d3dy53My5vcmcvMTk5OS94bGluayIgeG1sbnM9Imh0dHA6Ly93d3cudzMub3JnLzIwMDAvc3ZnIiBoZWlnaHQ9IjIwMCIgd2lkdGg9IjIzMy4zOTg0Mzc1IiB2ZXJzaW9uPSIxLjEiIHZpZXdCb3g9IjAgMCAxMTk1IDEwMjQiIGNsYXNzPSJpY29uIj48cGF0aCBmaWxsPSIjMzMzMzMzIiBkPSJNOTM1LjExMjgxNyA4MTAuNzc3NzM1SDkxOS4wMjk3OTVhMjEuNTk3MiAyMS41OTcyIDAgMCAxIDAtNDIuNzM0ODg1aDE3LjkyMTA4MWEyMTMuMjE0OTEzIDIxMy4yMTQ5MTMgMCAwIDAgMjE2Ljg5MTAzMi0yMDkuMDc5Mjc5IDIwOS45OTgzMDggMjA5Ljk5ODMwOCAwIDAgMC0xNDYuMTI1NzM3LTE5Ny41OTE0MDYgMjAuMjE4NjU1IDIwLjIxODY1NSAwIDAgMS0xNC4yNDQ5NjItMjIuNTE2MjN2LTI5LjQwODk1M2EyNjEuMDA0NDYyIDI2MS4wMDQ0NjIgMCAwIDAtMzQuNDYzNjE4LTEyOS4xMjM2ODYgMjEuNTk3MiAyMS41OTcyIDAgMCAxIDUuOTczNjk0LTI4Ljk0OTQzOSAyMi4wNTY3MTUgMjIuMDU2NzE1IDAgMCAxIDI4Ljk0OTQzOSA3LjgxMTc1MyAzMDMuNzM5MzQ3IDMwMy43MzkzNDcgMCAwIDEgMzkuOTc3Nzk2IDE1MC4yNjEzNzJ2MTcuNDYxNTY2YTI1MS44MTQxNjQgMjUxLjgxNDE2NCAwIDAgMSAxNjAuODMwMjE0IDIzMi4wNTUwMjMgMjU2LjQwOTMxMyAyNTYuNDA5MzEzIDAgMCAxLTI1OS42MjU5MTcgMjUxLjgxNDE2NHpNMjc1LjcwODkzOSA4MTAuNzc3NzM1aC0xNi4wODMwMjJhMjYxLjAwNDQ2MiAyNjEuMDA0NDYyIDAgMCAxLTE1OC4wNzMxMjUtNTEuOTI1MTgzIDIxLjEzNzY4NSAyMS4xMzc2ODUgMCAwIDEtNC41OTUxNDktMjkuODY4NDY5IDIyLjA1NjcxNSAyMi4wNTY3MTUgMCAwIDEgMjkuODY4NDY5LTQuNTk1MTQ5IDIyMC4xMDc2MzYgMjIwLjEwNzYzNiAwIDAgMCAxMzIuNzk5ODA1IDQ1Ljk1MTQ5SDI3NS43MDg5MzlhMjEuNTk3MiAyMS41OTcyIDAgMCAxIDAgNDIuNzM0ODg2eiBtLTIxOS4xODg2MDctMTA5LjgyNDA2QTIwLjIxODY1NSAyMC4yMTg2NTUgMCAwIDEgMzguNTk5MjUxIDY4OS40NjU4MDIgMjQzLjA4MzM4MSAyNDMuMDgzMzgxIDAgMCAxIDAgNTU4Ljk2MzU3MWEyNDkuOTc2MTA0IDI0OS45NzYxMDQgMCAwIDEgMTU4Ljk5MjE1NS0yMjkuNzU3NDQ5IDE3OC4yOTE3OCAxNzguMjkxNzggMCAwIDEgMTgwLjEyOTgzOS0xNzUuNTM0NjkgMTgzLjgwNTk1OSAxODMuODA1OTU5IDAgMCAxIDg5LjE0NTg5MSAyMi45NzU3NDQgMzE3LjA2NTI3OSAzMTcuMDY1Mjc5IDAgMCAxIDExNS4zMzgyMzktMTI3LjI4NTYyNiAzMjguMDkzNjM3IDMyOC4wOTM2MzcgMCAwIDEgMzIxLjY2MDQyOC0xMy43ODU0NDcgMjEuMTM3Njg1IDIxLjEzNzY4NSAwIDAgMSA5LjE5MDI5OCAyOC40ODk5MjQgMjEuNTk3MiAyMS41OTcyIDAgMCAxLTI4Ljk0OTQzOCA5LjE5MDI5OCAyODEuNjgyNjMyIDI4MS42ODI2MzIgMCAwIDAtMTI4LjY2NDE3Mi0zMC4zMjc5ODRBMjc1LjcwODkzOSAyNzUuNzA4OTM5IDAgMCAwIDQ1OS41MTQ4OTggMjE2LjE2NTQ1OGEyMS4xMzc2ODUgMjEuMTM3Njg1IDAgMCAxLTE2LjA4MzAyMiAxMy43ODU0NDcgMjEuNTk3MiAyMS41OTcyIDAgMCAxLTE4Ljg0MDExMS0zLjY3NjEyIDEzNy44NTQ0NjkgMTM3Ljg1NDQ2OSAwIDAgMC04NS40Njk3NzEtMjguOTQ5NDM4IDEzNS4wOTczOCAxMzUuMDk3MzggMCAwIDAtMTM3Ljg1NDQ2OSAxMzIuMzQwMjkgMTA4LjQ0NTUxNiAxMDguNDQ1NTE2IDAgMCAwIDAgMTEuNDg3ODczIDIwLjY3ODE3IDIwLjY3ODE3IDAgMCAxLTE0LjI0NDk2MiAyMS41OTcyIDIwOS45OTgzMDggMjA5Ljk5ODMwOCAwIDAgMC0xNDQuMjg3Njc4IDE5Ni4yMTI4NjEgMjA0Ljk0MzY0NCAyMDQuOTQzNjQ0IDAgMCAwIDMxLjcwNjUyOCAxMDkuMzY0NTQ2IDE5LjI5OTYyNiAxOS4yOTk2MjYgMCAwIDEgMi43NTcwOSAxNS42MjM1MDYgMjIuNTE2MjMgMjIuNTE2MjMgMCAwIDEtOS4xOTAyOTggMTMuNzg1NDQ3IDI1LjI3MzMxOSAyNS4yNzMzMTkgMCAwIDEtMTEuNDg3ODczIDMuMjE2NjA1ek05MjQuNTQzOTc0IDEyNC43MjE5OTNhMjEuNTk3MiAyMS41OTcyIDAgMCAxLTIxLjU5NzItMjEuNTk3MiAyMi41MTYyMyAyMi41MTYyMyAwIDAgMSA1Ljk3MzY5NC0xNC4yNDQ5NjIgMjIuNTE2MjMgMjIuNTE2MjMgMCAwIDEgMzAuMzI3OTgzIDAgMjEuNTk3MiAyMS41OTcyIDAgMCAxIDYuNDMzMjA4IDE1LjE2Mzk5MiAyMS4xMzc2ODUgMjEuMTM3Njg1IDAgMCAxLTIxLjEzNzY4NSAyMi4wNTY3MTV6TTU5Ny4zNjkzNjcgNTIzLjEyMTQwOWEyNTAuNDM1NjE5IDI1MC40MzU2MTkgMCAxIDAgMjUwLjQzNTYxOSAyNDkuOTc2MTA1QTI1MC40MzU2MTkgMjUwLjQzNTYxOSAwIDAgMCA1OTcuMzY5MzY3IDUyMy4xMjE0MDl6IG0wIDQ2NC41Njk1NjJhMjE0LjU5MzQ1NyAyMTQuNTkzNDU3IDAgMSAxIDIxNC41OTM0NTctMjE0LjU5MzQ1N0EyMTQuNTkzNDU3IDIxNC41OTM0NTcgMCAwIDEgNTk3LjM2OTM2NyA5ODcuNjkwOTcxeiIvPjxwYXRoIGZpbGw9IiMzMzMzMzMiIGQ9Ik01OTcuMzY5MzY3IDU1OC45NjM1NzFhMjEyLjI5NTg4MyAyMTIuMjk1ODgzIDAgMCAwLTcwLjc2NTI5NCA3LjgxMTc1NCAyODAuMzA0MDg4IDI4MC4zMDQwODggMCAwIDAtNzkuMDM2NTYzIDE3NS41MzQ2OSAyNzUuNzA4OTM5IDI3NS43MDg5MzkgMCAwIDAgMTA2LjE0Nzk0MiAyNDIuNjIzODY2aDE1LjE2Mzk5MWExNzEuODU4NTcyIDE3MS44NTg1NzIgMCAwIDAgNTcuNDM5MzYzIDAgMjI5Ljc1NzQ0OSAyMjkuNzU3NDQ5IDAgMCAxLTE0Mi45MDkxMzQtMjQxLjI0NTMyMUEyMzUuNzMxMTQzIDIzNS43MzExNDMgMCAwIDEgNTk3LjM2OTM2NyA1NTguOTYzNTcxeiIvPjxwYXRoIGZpbGw9IiMzMzMzMzMiIGQ9Ik01OTcuMzY5MzY3IDU1OC45NjM1NzFhMjEyLjI5NTg4MyAyMTIuMjk1ODgzIDAgMCAxIDcwLjc2NTI5NCA3LjgxMTc1NCAyODAuMzA0MDg4IDI4MC4zMDQwODggMCAwIDEgNzkuMDM2NTYzIDE3NS41MzQ2OSAyNzUuNzA4OTM5IDI3NS43MDg5MzkgMCAwIDEtMTA2LjE0Nzk0MiAyNDIuNjIzODY2aC0xNS4xNjM5OTFhMTcxLjg1ODU3MiAxNzEuODU4NTcyIDAgMCAxLTU3LjQzOTM2MyAwIDIyOS43NTc0NDkgMjI5Ljc1NzQ0OSAwIDAgMCAxNDIuOTA5MTM0LTI0MS4yNDUzMjFBMjM1LjczMTE0MyAyMzUuNzMxMTQzIDAgMCAwIDU5Ny4zNjkzNjcgNTU4Ljk2MzU3MXoiLz48cGF0aCBmaWxsPSIjMzMzMzMzIiBkPSJNNTk3LjM2OTM2NyA2NjYuMDMwNTQyYTI0OS4wNTcwNzUgMjQ5LjA1NzA3NSAwIDAgMCAxNDcuNTA0MjgyLTQ4LjcwODU3OSAyMDUuNDAzMTU5IDIwNS40MDMxNTkgMCAwIDAtMjguOTQ5NDM4LTIyLjk3NTc0NSAyMTQuMTMzOTQyIDIxNC4xMzM5NDIgMCAwIDEtMjM3LjEwOTY4OCAwIDIwNS40MDMxNTkgMjA1LjQwMzE1OSAwIDAgMC0yOC45NDk0MzggMjIuOTc1NzQ1QTI0OS4wNTcwNzUgMjQ5LjA1NzA3NSAwIDAgMCA1OTcuMzY5MzY3IDY2Ni4wMzA1NDJ6TTU5Ny4zNjkzNjcgODgxLjA4MzUxNWEyNDguNTk3NTYgMjQ4LjU5NzU2IDAgMCAxIDE0Ny41MDQyODIgNDUuOTUxNDg5IDE3OS4yMTA4MSAxNzkuMjEwODEgMCAwIDEtMjguOTQ5NDM4IDIzLjQzNTI2IDIxNC4xMzM5NDIgMjE0LjEzMzk0MiAwIDAgMC0yMzcuMTA5Njg4IDAgMTc5LjIxMDgxIDE3OS4yMTA4MSAwIDAgMS0yOC45NDk0MzgtMjMuNDM1MjYgMjQ4LjU5NzU2IDI0OC41OTc1NiAwIDAgMSAxNDcuNTA0MjgyLTQ1Ljk1MTQ4OXpNMzU5LjgwMDE2NSA3NTUuNjM1OTQ4aDQ3NC42Nzg4ODl2MzUuODQyMTYySDM1OS44MDAxNjV6Ii8+PC9zdmc+;" vertex="1" parent="1">
          <mxGeometry x="269" y="161.19" width="55.92" height="48" as="geometry" />
        </mxCell>
        <mxCell id="dHRViFNPcDj-gL-n66T--64" style="edgeStyle=orthogonalEdgeStyle;rounded=0;orthogonalLoop=1;jettySize=auto;html=1;exitX=0.5;exitY=1;exitDx=0;exitDy=0;entryX=0.5;entryY=0;entryDx=0;entryDy=0;fontFamily=Helvetica;fontSize=12;fontColor=default;" edge="1" parent="1" source="dHRViFNPcDj-gL-n66T--65" target="dHRViFNPcDj-gL-n66T--30">
          <mxGeometry relative="1" as="geometry" />
        </mxCell>
        <mxCell id="dHRViFNPcDj-gL-n66T--65" value="" style="shape=image;verticalLabelPosition=bottom;labelBackgroundColor=default;verticalAlign=top;aspect=fixed;imageAspect=0;editableCssRules=.*;image=data:image/svg+xml,PHN2ZyB4bWxuczp4bGluaz0iaHR0cDovL3d3dy53My5vcmcvMTk5OS94bGluayIgeG1sbnM9Imh0dHA6Ly93d3cudzMub3JnLzIwMDAvc3ZnIiBoZWlnaHQ9IjIwMCIgd2lkdGg9IjIwMCIgdmVyc2lvbj0iMS4xIiB2aWV3Qm94PSIwIDAgMTAyNCAxMDI0IiBjbGFzcz0iaWNvbiI+PHBhdGggZmlsbD0iIzAwMDAwMCIgZD0iTTMwMy42MjggNTM0LjgzOGEzNDguNTg0IDM0OC41ODQgMCAwIDAgNy42NiAxOS40NDNDMTg0LjI1OSA1ODUuMjc0IDkwIDY5OS42NTggOTAgODM2YzAgMjQuMy0xOS43IDQ0LTQ0IDQ0UzIgODYwLjMgMiA4MzZjMC0xNTEuNTczIDg5LjMyNi0yODIuMjk2IDIxOC4yNi0zNDIuNTUzIDI0LjkwMyAxOC4yNyA1My4wMyAzMi40MDUgODMuMzY4IDQxLjM5ek0yODMuMjcgNDI5LjkzQzIzMS40NDggMzk3LjM4IDE5NyAzMzkuNzEzIDE5NyAyNzRjMC0xMDEuNjIgODIuMzgtMTg0IDE4NC0xODQgMjkuNTI1IDAgNTcuNDI1IDYuOTU0IDgyLjE1MyAxOS4zMTNDMzU1LjY3OCAxNjkuMzEzIDI4MyAyODQuMTcgMjgzIDQxNmMwIDQuNjY1IDAuMDkxIDkuMzA5IDAuMjcxIDEzLjkzeiBtMTk2Ljk5IDIwMi41MTdDNTI1LjI5IDY2NS40ODcgNTgwLjg2NyA2ODUgNjQxIDY4NWM1OS45NiAwIDExNS4zODctMTkuNCAxNjAuMzUtNTIuMjY4QzkyOS45NTUgNjkzLjExNyAxMDE5IDgyMy42NjYgMTAxOSA5NzVjMCAyNC4zLTE5LjcgNDQtNDQgNDRzLTQ0LTE5LjctNDQtNDRjMC0xNjAuMTQ4LTEzMC4wNDctMjkwLTI5MC41LTI5MFMzNTAgODE0Ljg1MiAzNTAgOTc1YzAgMjQuMy0xOS43IDQ0LTQ0IDQ0cy00NC0xOS43LTQ0LTQ0YzAtMTUxLjU3MyA4OS4zMjYtMjgyLjI5NiAyMTguMjYtMzQyLjU1M3pNNjQxIDU5N2MtMTAxLjYyIDAtMTg0LTgyLjM4LTE4NC0xODRzODIuMzgtMTg0IDE4NC0xODQgMTg0IDgyLjM4IDE4NCAxODQtODIuMzggMTg0LTE4NCAxODR6Ii8+PC9zdmc+;" vertex="1" parent="1">
          <mxGeometry x="143" y="106.19" width="65" height="65" as="geometry" />
        </mxCell>
        <mxCell id="dHRViFNPcDj-gL-n66T--66" style="edgeStyle=orthogonalEdgeStyle;rounded=0;orthogonalLoop=1;jettySize=auto;html=1;exitX=1;exitY=0.5;exitDx=0;exitDy=0;entryX=0.831;entryY=0.9;entryDx=0;entryDy=0;entryPerimeter=0;fontFamily=Helvetica;fontSize=12;fontColor=default;" edge="1" parent="1" source="dHRViFNPcDj-gL-n66T--32" target="dHRViFNPcDj-gL-n66T--8">
          <mxGeometry relative="1" as="geometry" />
        </mxCell>
        <mxCell id="dHRViFNPcDj-gL-n66T--67" style="edgeStyle=orthogonalEdgeStyle;rounded=0;orthogonalLoop=1;jettySize=auto;html=1;exitX=1;exitY=0.5;exitDx=0;exitDy=0;entryX=0;entryY=0.75;entryDx=0;entryDy=0;fontFamily=Helvetica;fontSize=12;fontColor=default;" edge="1" parent="1" source="dHRViFNPcDj-gL-n66T--33" target="dHRViFNPcDj-gL-n66T--3">
          <mxGeometry relative="1" as="geometry" />
        </mxCell>
        <mxCell id="dHRViFNPcDj-gL-n66T--68" value="User button inputs and corresponding LED feedback" style="text;html=1;align=center;verticalAlign=middle;whiteSpace=wrap;rounded=0;fontSize=6;" vertex="1" parent="1">
          <mxGeometry x="118" y="199.19" width="95" height="35" as="geometry" />
        </mxCell>
        <mxCell id="dHRViFNPcDj-gL-n66T--69" value="" style="endArrow=classic;html=1;rounded=0;fontFamily=Helvetica;fontSize=12;fontColor=default;" edge="1" parent="1">
          <mxGeometry width="50" height="50" relative="1" as="geometry">
            <mxPoint x="389" y="195.19" as="sourcePoint" />
            <mxPoint x="333" y="187.19" as="targetPoint" />
          </mxGeometry>
        </mxCell>
        <mxCell id="dHRViFNPcDj-gL-n66T--70" value="" style="endArrow=classic;html=1;rounded=0;fontFamily=Helvetica;fontSize=12;fontColor=default;" edge="1" parent="1">
          <mxGeometry width="50" height="50" relative="1" as="geometry">
            <mxPoint x="389" y="195.19" as="sourcePoint" />
            <mxPoint x="408" y="235.19" as="targetPoint" />
          </mxGeometry>
        </mxCell>
        <mxCell id="dHRViFNPcDj-gL-n66T--71" value="WIFI channel" style="text;html=1;align=center;verticalAlign=middle;whiteSpace=wrap;rounded=0;fontSize=6;" vertex="1" parent="1">
          <mxGeometry x="361" y="174" width="60" height="30" as="geometry" />
        </mxCell>
        <mxCell id="dHRViFNPcDj-gL-n66T--72" value="" style="endArrow=classic;startArrow=classic;html=1;rounded=0;fontFamily=Helvetica;fontSize=12;fontColor=default;exitX=0;exitY=0.25;exitDx=0;exitDy=0;" edge="1" parent="1" source="dHRViFNPcDj-gL-n66T--63">
          <mxGeometry width="50" height="50" relative="1" as="geometry">
            <mxPoint x="354" y="228.19" as="sourcePoint" />
            <mxPoint x="212" y="140.19" as="targetPoint" />
          </mxGeometry>
        </mxCell>
        <mxCell id="dHRViFNPcDj-gL-n66T--73" value="Feedback" style="text;html=1;align=center;verticalAlign=middle;whiteSpace=wrap;rounded=0;fontSize=6;" vertex="1" parent="1">
          <mxGeometry x="225" y="131.19" width="60" height="30" as="geometry" />
        </mxCell>
        <mxCell id="dHRViFNPcDj-gL-n66T--74" value="Command" style="text;html=1;align=center;verticalAlign=middle;whiteSpace=wrap;rounded=0;fontSize=6;" vertex="1" parent="1">
          <mxGeometry x="205" y="151.19" width="60" height="30" as="geometry" />
        </mxCell>
        <mxCell id="dHRViFNPcDj-gL-n66T--75" value="" style="endArrow=classic;html=1;rounded=0;" edge="1" parent="1">
          <mxGeometry width="50" height="50" relative="1" as="geometry">
            <mxPoint x="545" y="133.19" as="sourcePoint" />
            <mxPoint x="606" y="133.19" as="targetPoint" />
          </mxGeometry>
        </mxCell>
      </root>
    </mxGraphModel>
  </diagram>
</mxfile>
